# xmcd
#
# Track frame offsets:
#	150
#	15145
#	25088
#	38313
#	52103
#	65025
#	78260
#	91488
#	107995
#	121500
#	133768
#	146418
#	160133
#	173163
#	184675
#	195960
#
# Disc length: 2768 seconds
#
# Revision: 5
# Processed by: cddbd v1.5.2PL0 Copyright (c) Steve Scherf et al.
# Submitted via: audiograbber 1.83.01
#
DISCID=c10ace10
DTITLE=Marvin Gaye - Super Hits
DYEAR=1900
DGENRE=Oldies
TTITLE0=I Heard It Through The Grapevine
TTITLE1=Pride And Joy
TTITLE2=The End Of Our Road
TTITLE3=Ain't That Peculiar
TTITLE4=Stubborn Kind Of Fellow
TTITLE5=Can I Get A Witness
TTITLE6=How Sweet It Is (To Be Loved By You)
TTITLE7=That's The Way Love Is
TTITLE8=Too Busy Thinking About My Baby
TTITLE9=Chained
TTITLE10=You're A Wonderful One
TTITLE11=Try It Baby
TTITLE12=I'll Be Doggone
TTITLE13=Hitch Hike
TTITLE14=You
TTITLE15=Baby Don't You Do It
EXTD=
EXTT0=
EXTT1=
EXTT2=
EXTT3=
EXTT4=
EXTT5=
EXTT6=
EXTT7=
EXTT8=
EXTT9=
EXTT10=
EXTT11=
EXTT12=
EXTT13=
EXTT14=
EXTT15=released in the sixties, but year is not \nprinted on CD\n
PLAYORDER=
